<svg width="33" height="33" viewBox="0 0 33 33" fill="none" xmlns="http://www.w3.org/2000/svg">
  <circle cx="16.5" cy="16.5" r="15.5" stroke="#1D76BC" stroke-width="2"/>
  <path fill-rule="evenodd" clip-rule="evenodd" d="M17.6162 15.0193L24.0479 21.4509C24.3312 21.7343 24.3312 22.1805 24.0479 22.4497L22.4187 24.0789C22.1425 24.3551 21.6962 24.3551 21.42 24.0789L14.9671 17.6259C13.3237 18.2422 11.4041 17.8951 10.0866 16.5776C8.45747 14.9555 8.30872 12.4126 9.62622 10.6134L12.3391 13.3264L13.345 12.3276L10.625 9.60053C12.4312 8.28303 14.9671 8.43178 16.5962 10.0609C17.935 11.4068 18.275 13.3618 17.6162 15.0193ZM15.2221 15.8834L21.9229 22.5843L22.5462 21.9539L15.8525 15.2601C16.1783 14.8422 16.3908 14.3747 16.4758 13.8718C16.6529 12.8872 16.3625 11.8318 15.5975 11.0668C14.9246 10.4009 14.0391 10.0893 13.1608 10.1389L15.3496 12.3276L12.3462 15.3309L10.1575 13.1422C10.1079 14.0205 10.4196 14.913 11.0925 15.5789C11.8291 16.3155 12.8421 16.6059 13.8054 16.4643C14.3083 16.3934 14.79 16.2022 15.2221 15.8834Z" fill="#1D76BC"/>
</svg>
